<?xml version="1.0" standalone="no"?><svg xmlns="http://www.w3.org/2000/svg" viewBox="0 0 1440 320"><path fill="#5851f4" fill-opacity="1" d="M0,224L11.4,192C22.9,160,46,96,69,90.7C91.4,85,114,139,137,170.7C160,203,183,213,206,208C228.6,203,251,181,274,170.7C297.1,160,320,160,343,176C365.7,192,389,224,411,202.7C434.3,181,457,107,480,85.3C502.9,64,526,96,549,117.3C571.4,139,594,149,617,170.7C640,192,663,224,686,208C708.6,192,731,128,754,101.3C777.1,75,800,85,823,112C845.7,139,869,181,891,197.3C914.3,213,937,203,960,218.7C982.9,235,1006,277,1029,250.7C1051.4,224,1074,128,1097,96C1120,64,1143,96,1166,90.7C1188.6,85,1211,43,1234,37.3C1257.1,32,1280,64,1303,80C1325.7,96,1349,96,1371,90.7C1394.3,85,1417,75,1429,69.3L1440,64L1440,320L1428.6,320C1417.1,320,1394,320,1371,320C1348.6,320,1326,320,1303,320C1280,320,1257,320,1234,320C1211.4,320,1189,320,1166,320C1142.9,320,1120,320,1097,320C1074.3,320,1051,320,1029,320C1005.7,320,983,320,960,320C937.1,320,914,320,891,320C868.6,320,846,320,823,320C800,320,777,320,754,320C731.4,320,709,320,686,320C662.9,320,640,320,617,320C594.3,320,571,320,549,320C525.7,320,503,320,480,320C457.1,320,434,320,411,320C388.6,320,366,320,343,320C320,320,297,320,274,320C251.4,320,229,320,206,320C182.9,320,160,320,137,320C114.3,320,91,320,69,320C45.7,320,23,320,11,320L0,320Z"></path></svg>